<svg xmlns="http://www.w3.org/2000/svg" viewBox="0 0 100 100" role="img" aria-label="मंगलसूत्र">
<defs>
<linearGradient id="au" x1="0" y1="0" x2="0.4" y2="1">
  <stop offset="0%" stop-color="#fbeaa0"/><stop offset="45%" stop-color="#e0b423"/>
  <stop offset="100%" stop-color="#a97a06"/></linearGradient>
<radialGradient id="bead" cx="35%" cy="30%" r="70%">
  <stop offset="0%" stop-color="#5a5a66"/><stop offset="55%" stop-color="#23232b"/>
  <stop offset="100%" stop-color="#0d0d12"/></radialGradient>
<radialGradient id="velvet" cx="50%" cy="42%" r="72%">
  <stop offset="0%" stop-color="#b7241a"/><stop offset="70%" stop-color="#8e1710"/>
  <stop offset="100%" stop-color="#5e0d09"/></radialGradient>
</defs>
<rect width="100" height="100" rx="8" fill="#4a0a07"/>
<rect x="3" y="3" width="94" height="94" rx="6" fill="url(#velvet)"/>
<rect x="3" y="3" width="94" height="94" rx="6" fill="none" stroke="#d9a441" stroke-width="2"/>
<rect x="6.5" y="6.5" width="87" height="87" rx="4" fill="none" stroke="#e8c06a" stroke-width="0.6" opacity=".55"/>
<path d="M10 28.1Q50 64.5 90 28.1" fill="none" stroke="#1a1a20" stroke-width="1.2"/><circle cx="10.0" cy="28.1" r="2.6" fill="url(#bead)" stroke="#000" stroke-width="0.4"/><circle cx="9.2" cy="27.2" r="0.8" fill="#9aa" opacity=".5"/><circle cx="15.6" cy="33.4" r="2.6" fill="url(#bead)" stroke="#000" stroke-width="0.4"/><circle cx="14.8" cy="32.5" r="0.8" fill="#9aa" opacity=".5"/><circle cx="21.2" cy="37.9" r="2.6" fill="url(#bead)" stroke="#000" stroke-width="0.4"/><circle cx="20.4" cy="37.0" r="0.8" fill="#9aa" opacity=".5"/><circle cx="26.8" cy="41.6" r="2.6" fill="url(#bead)" stroke="#000" stroke-width="0.4"/><circle cx="26.0" cy="40.7" r="0.8" fill="#9aa" opacity=".5"/><circle cx="32.4" cy="44.5" r="2.6" fill="url(#bead)" stroke="#000" stroke-width="0.4"/><circle cx="31.6" cy="43.6" r="0.8" fill="#9aa" opacity=".5"/><circle cx="38.0" cy="46.7" r="2.6" fill="url(#bead)" stroke="#000" stroke-width="0.4"/><circle cx="37.2" cy="45.8" r="0.8" fill="#9aa" opacity=".5"/><circle cx="43.6" cy="48.0" r="2.6" fill="url(#bead)" stroke="#000" stroke-width="0.4"/><circle cx="42.8" cy="47.1" r="0.8" fill="#9aa" opacity=".5"/><circle cx="49.2" cy="48.5" r="2.6" fill="url(#bead)" stroke="#000" stroke-width="0.4"/><circle cx="48.4" cy="47.6" r="0.8" fill="#9aa" opacity=".5"/><circle cx="54.8" cy="48.2" r="2.6" fill="url(#bead)" stroke="#000" stroke-width="0.4"/><circle cx="54.0" cy="47.3" r="0.8" fill="#9aa" opacity=".5"/><circle cx="60.4" cy="47.1" r="2.6" fill="url(#bead)" stroke="#000" stroke-width="0.4"/><circle cx="59.6" cy="46.2" r="0.8" fill="#9aa" opacity=".5"/><circle cx="66.0" cy="45.2" r="2.6" fill="url(#bead)" stroke="#000" stroke-width="0.4"/><circle cx="65.2" cy="44.3" r="0.8" fill="#9aa" opacity=".5"/><circle cx="71.6" cy="42.5" r="2.6" fill="url(#bead)" stroke="#000" stroke-width="0.4"/><circle cx="70.8" cy="41.6" r="0.8" fill="#9aa" opacity=".5"/><circle cx="77.2" cy="39.1" r="2.6" fill="url(#bead)" stroke="#000" stroke-width="0.4"/><circle cx="76.4" cy="38.2" r="0.8" fill="#9aa" opacity=".5"/><circle cx="82.8" cy="34.8" r="2.6" fill="url(#bead)" stroke="#000" stroke-width="0.4"/><circle cx="82.0" cy="33.9" r="0.8" fill="#9aa" opacity=".5"/><circle cx="88.4" cy="29.7" r="2.6" fill="url(#bead)" stroke="#000" stroke-width="0.4"/><circle cx="87.6" cy="28.8" r="0.8" fill="#9aa" opacity=".5"/><circle cx="43" cy="60" r="7.5" fill="url(#au)" stroke="#7a5406" stroke-width="1"/><circle cx="57" cy="60" r="7.5" fill="url(#au)" stroke="#7a5406" stroke-width="1"/><circle cx="43" cy="60" r="3.4" fill="none" stroke="#7a5406" stroke-width="0.8"/><circle cx="57" cy="60" r="3.4" fill="none" stroke="#7a5406" stroke-width="0.8"/><circle cx="48.6" cy="60.0" r="0.9" fill="#7a5406"/><circle cx="47.0" cy="64.0" r="0.9" fill="#7a5406"/><circle cx="43.0" cy="65.6" r="0.9" fill="#7a5406"/><circle cx="39.0" cy="64.0" r="0.9" fill="#7a5406"/><circle cx="37.4" cy="60.0" r="0.9" fill="#7a5406"/><circle cx="39.0" cy="56.0" r="0.9" fill="#7a5406"/><circle cx="43.0" cy="54.4" r="0.9" fill="#7a5406"/><circle cx="47.0" cy="56.0" r="0.9" fill="#7a5406"/><circle cx="62.6" cy="60.0" r="0.9" fill="#7a5406"/><circle cx="61.0" cy="64.0" r="0.9" fill="#7a5406"/><circle cx="57.0" cy="65.6" r="0.9" fill="#7a5406"/><circle cx="53.0" cy="64.0" r="0.9" fill="#7a5406"/><circle cx="51.4" cy="60.0" r="0.9" fill="#7a5406"/><circle cx="53.0" cy="56.0" r="0.9" fill="#7a5406"/><circle cx="57.0" cy="54.4" r="0.9" fill="#7a5406"/><circle cx="61.0" cy="56.0" r="0.9" fill="#7a5406"/><path d="M50 68v4" stroke="#7a5406" stroke-width="1.4" fill="none"/><path d="M50 72l-6 8 6 10 6-10z" fill="url(#au)" stroke="#7a5406" stroke-width="1"/><path d="M44 80h12" stroke="#7a5406" stroke-width="0.7" fill="none"/><ellipse cx="47" cy="78" rx="1.6" ry="2.6" fill="#fff3c4" opacity=".45"/></svg>