<svg xmlns="http://www.w3.org/2000/svg" viewBox="0 0 100 100" role="img" aria-label="अंगूठी">
<defs>
<linearGradient id="au" x1="0" y1="0" x2="0.4" y2="1">
  <stop offset="0%" stop-color="#fbeaa0"/><stop offset="45%" stop-color="#e0b423"/>
  <stop offset="100%" stop-color="#a97a06"/></linearGradient>
<linearGradient id="ag" x1="0" y1="0" x2="0.4" y2="1">
  <stop offset="0%" stop-color="#f4f6f8"/><stop offset="45%" stop-color="#c9d2d8"/>
  <stop offset="100%" stop-color="#8e9aa3"/></linearGradient>
<radialGradient id="velvet" cx="50%" cy="42%" r="72%">
  <stop offset="0%" stop-color="#b7241a"/><stop offset="70%" stop-color="#8e1710"/>
  <stop offset="100%" stop-color="#5e0d09"/></radialGradient>
</defs>
<rect width="100" height="100" rx="8" fill="#4a0a07"/>
<rect x="3" y="3" width="94" height="94" rx="6" fill="url(#velvet)"/>
<rect x="3" y="3" width="94" height="94" rx="6" fill="none" stroke="#d9a441" stroke-width="2"/>
<rect x="6.5" y="6.5" width="87" height="87" rx="4" fill="none" stroke="#e8c06a" stroke-width="0.6" opacity=".55"/>
<g fill="url(#au)" stroke="#7a5406" stroke-width="1" stroke-linejoin="round">
<path d="M50 40c16 0 28 9 28 21s-12 21-28 21-28-9-28-21 12-21 28-21zm0 8c-11 0-20 6-20 13s9 13 20 13 20-6 20-13-9-13-20-13z"/><path d="M36 44c3-6 8-9 14-9s11 3 14 9l-6 3c-2-3-5-5-8-5s-6 2-8 5z"/><path d="M50 12l-12 13 12 16 12-16z"/><path d="M38 25h24M50 12v29M43 25l7 16M57 25l-7 16" fill="none" stroke="#7a5406" stroke-width="0.7" opacity=".7"/><path d="M44 18l4-4 4 4z" fill="#fff8e2" opacity=".6" stroke="none"/></g></svg>